<?xml version="1.0" encoding="UTF-8" standalone="no"?>
<!-- Created with Inkscape (http://www.inkscape.org/) -->

<svg
   width="512"
   height="512"
   viewBox="0 0 135.46667 135.46667"
   version="1.1"
   id="svg5"
   inkscape:version="1.1 (c68e22c387, 2021-05-23)"
   sodipodi:docname="logo.svg"
   inkscape:export-filename="D:\coding\java\minecraft\bow-tie\logo.png"
   inkscape:export-xdpi="48"
   inkscape:export-ydpi="48"
   xmlns:inkscape="http://www.inkscape.org/namespaces/inkscape"
   xmlns:sodipodi="http://sodipodi.sourceforge.net/DTD/sodipodi-0.dtd"
   xmlns:xlink="http://www.w3.org/1999/xlink"
   xmlns="http://www.w3.org/2000/svg"
   xmlns:svg="http://www.w3.org/2000/svg">
  <sodipodi:namedview
     id="namedview7"
     pagecolor="#969696"
     bordercolor="#666666"
     borderopacity="1.0"
     inkscape:pageshadow="2"
     inkscape:pageopacity="0"
     inkscape:pagecheckerboard="0"
     inkscape:document-units="mm"
     showgrid="false"
     units="px"
     inkscape:zoom="1.4823794"
     inkscape:cx="363.94193"
     inkscape:cy="357.53331"
     inkscape:window-width="1920"
     inkscape:window-height="1138"
     inkscape:window-x="3833"
     inkscape:window-y="276"
     inkscape:window-maximized="1"
     inkscape:current-layer="layer1"
     inkscape:snap-bbox="true"
     inkscape:bbox-paths="true"
     inkscape:bbox-nodes="true"
     inkscape:snap-bbox-edge-midpoints="true"
     inkscape:snap-bbox-midpoints="true"
     inkscape:snap-nodes="true"
     inkscape:object-nodes="false"
     inkscape:snap-midpoints="true"
     inkscape:snap-global="false" />
  <defs
     id="defs2">
    <linearGradient
       inkscape:collect="always"
       id="linearGradient8975">
      <stop
         style="stop-color:#000000;stop-opacity:0.28305784"
         offset="0"
         id="stop8971" />
      <stop
         style="stop-color:#000000;stop-opacity:0;"
         offset="1"
         id="stop8973" />
    </linearGradient>
    <pattern
       inkscape:collect="always"
       xlink:href="#Strips1_2"
       id="pattern3419"
       patternTransform="matrix(9.2097261,3.8962736,-3.8962736,9.2097261,0,0)" />
    <pattern
       inkscape:collect="always"
       patternUnits="userSpaceOnUse"
       width="3"
       height="1"
       patternTransform="translate(0,0) scale(10,10)"
       id="Strips1_2"
       inkscape:stockid="Stripes 1:2">
      <rect
         style="fill:#6ebac9;stroke:none"
         x="0"
         y="-0.5"
         width="1"
         height="2"
         id="rect2001" />
    </pattern>
    <inkscape:path-effect
       effect="fill_between_many"
       method="originald"
       linkedpaths="#path6822,0,1|#use7047,0,1|"
       id="path-effect13150" />
    <inkscape:path-effect
       effect="fill_between_many"
       method="originald"
       linkedpaths="#path13243,0,1"
       id="path-effect13258" />
    <linearGradient
       inkscape:collect="always"
       xlink:href="#linearGradient8975"
       id="linearGradient8977"
       x1="87.588602"
       y1="67.64768"
       x2="112.83028"
       y2="67.64768"
       gradientUnits="userSpaceOnUse"
       gradientTransform="matrix(1.18,0,0,1.0526316,-18.542528,-3.4747515)" />
    <linearGradient
       inkscape:collect="always"
       xlink:href="#linearGradient8975"
       id="linearGradient9251"
       gradientUnits="userSpaceOnUse"
       gradientTransform="matrix(-1.18,0,0,1.0526316,153.58548,-3.4747514)"
       x1="87.588602"
       y1="67.64768"
       x2="112.83028"
       y2="67.64768" />
  </defs>
  <g
     inkscape:label="Layer 1"
     inkscape:groupmode="layer"
     id="layer1">
    <path
       id="path1904"
       style="font-size:10.5833px;line-height:1.25;font-family:Cambria;-inkscape-font-specification:Cambria;letter-spacing:0px;word-spacing:0px;stroke-width:3.13267;fill:#ffffff"
       d="m 115.89453,35.478516 c -3.52022,0.164723 -6.54925,2.254891 -9.27603,4.298571 -5.89827,4.621624 -10.975078,10.212208 -15.558079,16.119304 -2.344198,2.846972 -4.889872,5.718765 -8.240109,7.390718 -2.178843,1.068281 -4.820171,0.822335 -6.971,-0.181912 -1.654575,-0.784705 -2.84733,-2.326604 -3.513374,-3.861056 -1.69551,-3.785817 -3.093341,-7.658469 -4.503907,-11.554688 -1.046749,1.754068 -1.47164,3.80222 -2.277461,5.653239 -0.971283,2.401431 -1.823688,4.87137 -3.081914,7.141683 -0.542441,0.896024 -1.555822,1.961974 -2.651686,2.51398 -1.861399,0.955739 -4.123161,1.267014 -6.146268,0.686702 -3.218458,-1.12873 -5.665046,-3.67632 -7.899142,-6.150904 -2.434138,-2.89358 -4.680099,-5.945765 -7.280183,-8.696967 -3.902131,-4.188342 -8.023377,-8.283762 -12.919748,-11.30778 -2.62515,-1.635581 -5.947338,-2.707579 -8.983281,-1.614225 -3.039835,1.03297 -5.245441,3.989774 -5.486879,7.176616 -0.740705,5.745338 -0.996841,11.542247 -1.2501403,17.325923 -0.3724998,9.65478 0.049479,19.325785 0.8979513,28.944589 0.295796,2.457727 0.314323,5.146312 1.885392,7.204097 1.737212,2.499838 4.930307,3.856344 7.934297,3.327037 3.403687,-0.549129 6.273853,-2.662461 8.936929,-4.721168 5.742366,-4.62907 10.693073,-10.158079 15.199086,-15.976963 2.349043,-2.792008 4.900105,-5.633843 8.284006,-7.165337 2.185027,-0.935913 4.771264,-0.596552 6.854037,0.4466 2.016762,1.037993 3.120003,3.138916 3.901437,5.171692 1.437427,3.320352 2.646,6.73174 3.888255,10.127124 1.045328,-1.753864 1.469034,-3.79902 2.275508,-5.651286 0.968011,-2.393995 1.818561,-4.855743 3.070195,-7.120199 1.367726,-2.340347 4.11245,-3.551469 6.759608,-3.506706 2.742273,-0.06664 5.069073,1.727329 7.030759,3.444807 2.761142,2.433306 4.965117,5.583005 7.347251,8.440615 4.111251,4.819096 8.54233,9.439589 13.67782,13.179517 2.70893,1.929269 5.88846,3.756171 9.34081,3.385127 3.68941,-0.362301 6.80789,-3.556935 7.17022,-7.23014 0.74588,-5.427016 0.98127,-10.911002 1.2512,-16.37818 0.45585,-10.051743 0.0444,-20.125973 -0.83811,-30.142724 -0.30259,-2.442355 -0.29437,-5.114354 -1.81664,-7.18441 -1.54926,-2.270282 -4.24938,-3.684777 -7.01081,-3.533296 z m -93.535155,7.603515 c 2.794693,0.159702 5.173099,1.882466 7.353696,3.480178 4.865171,3.768854 8.923121,8.484966 12.779302,13.280548 2.491647,2.966782 5.130826,5.948962 8.533018,7.891618 -4.642543,2.684165 -7.840443,7.123604 -11.220582,11.158942 -3.379028,4.006361 -7.134711,7.967311 -11.492309,11.032464 -2.116534,1.420661 -4.579246,2.81957 -7.229901,2.388921 -1.647522,-0.108415 -3.253347,-1.025705 -3.933704,-2.574386 -1.16989,-2.528666 -1.360715,-5.3001 -1.731593,-8.045836 -0.756311,-5.984819 -0.745708,-11.978029 -0.674731,-18.017806 0.107442,-5.001363 0.509691,-10.027144 1.439549,-14.965913 0.359263,-1.598264 0.807684,-3.338444 2.114755,-4.493964 1.121138,-0.949038 2.649598,-1.122487 4.0625,-1.134766 z m 90.798825,0 c 1.83873,-0.03493 3.95038,0.465394 4.90825,2.200761 1.3554,2.400955 1.5272,5.285318 1.91933,7.925957 0.66638,5.224829 0.81452,10.431561 0.76219,15.699844 0.0159,5.879401 -0.35453,11.751956 -1.40456,17.55325 -0.33573,1.615833 -0.74121,3.280759 -1.91177,4.549876 -1.46285,1.392761 -3.70679,1.565731 -5.60434,1.204858 -3.13413,-0.846522 -5.71849,-2.970257 -8.15738,-5.021265 -4.178044,-3.610827 -7.70957,-7.877118 -11.177565,-12.150008 -2.354094,-2.759612 -4.8693,-5.501094 -8.054855,-7.312882 4.55792,-2.626961 7.722215,-6.962833 11.033645,-10.927471 3.497803,-4.173246 7.288425,-8.184157 11.766555,-11.319106 1.77634,-1.16043 3.73724,-2.344403 5.9205,-2.403814 z M 67.912109,62.353516 c 1.632228,2.153221 3.646295,4.050135 6.007813,5.380859 -2.451085,1.379212 -4.527693,3.366517 -6.189453,5.623047 -1.652779,-2.262509 -3.737243,-4.242676 -6.183594,-5.625 2.450906,-1.379944 4.529728,-3.366317 6.189453,-5.625 0.05859,0.08203 0.117188,0.164062 0.175781,0.246094 z" />
    <path
       id="path4314"
       style="fill:#78d06a;fill-opacity:1;stroke-width:2.03724;stroke-linecap:square"
       d="m 429.39844,157.39648 c -0.3651,0.002 -0.73072,-0.003 -1.09571,0.002 -7.67179,0.15333 -14.92311,3.27095 -21.42382,7.13672 -6.82859,4.0965 -13.17556,8.97134 -19.00586,14.39062 -9.68228,8.8968 -18.77455,18.42169 -27.52735,28.22852 -6.31563,7.07862 -12.2217,14.51254 -18.63281,21.50781 -6.0814,6.63422 -12.31247,13.2115 -19.46875,18.70703 -2.59131,2.02878 -5.47006,3.6337 -8.41211,5.08984 -2.25512,1.16898 -4.51051,2.33883 -6.76562,3.50782 4.281,2.31382 8.69424,4.39576 12.83789,6.95508 7.97042,5.01792 14.45806,11.96851 20.70117,18.93164 5.45824,6.10227 10.64819,12.48947 15.94726,18.79882 8.54478,9.85011 17.42423,19.42882 26.92188,28.3711 7.72683,7.21458 15.8324,14.17436 25.0625,19.41015 4.49004,2.47694 9.23067,4.66154 14.28711,5.66602 7.77706,1.44766 16.28181,3.5e-4 22.69336,-4.7793 3.84382,-2.82194 6.45394,-7.00931 8.04883,-11.44726 2.38537,-6.59136 3.49144,-13.5523 4.56445,-20.45313 1.04432,-7.07889 2.00322,-14.18003 2.36133,-21.33203 0.93736,-16.46132 1.04761,-32.95918 0.93554,-49.44336 -0.14815,-12.36055 -0.38193,-24.73178 -1.36132,-37.05859 -0.55722,-6.10914 -1.42934,-12.18519 -2.36719,-18.2461 -1.17358,-7.31786 -2.71164,-14.71794 -6.2207,-21.31836 -1.85726,-3.65586 -4.51171,-7.04957 -8.17188,-9.02929 -4.25783,-2.28008 -9.08424,-3.48822 -13.9082,-3.59571 z M 85.482422,157.8418 c -1.592949,-0.0157 -3.188389,0.0316 -4.763672,0.0332 -3.578306,0.0674 -7.265299,0.45778 -10.466797,2.18359 -4.069565,1.98075 -7.400758,5.31888 -9.529297,9.29883 -3.12023,5.78325 -4.549725,12.27792 -5.796875,18.67578 -1.312433,7.22389 -2.338476,14.50321 -3.035156,21.8125 -0.946783,11.10991 -0.816741,22.27201 -0.910156,33.41211 -0.0098,16.68196 -0.104744,33.37175 0.435547,50.04688 0.181455,5.51026 0.505315,11.02163 1.308593,16.48047 1.171442,8.62871 2.473801,17.29127 5.035157,25.63476 1.512053,4.68557 3.433297,9.48472 7.066406,12.94727 2.296603,2.12696 5.251196,3.35267 8.138672,4.45312 6.507201,2.40212 13.764978,2.05274 20.304687,-0.0371 8.665619,-2.74382 16.365029,-7.81832 23.490239,-13.35156 11.22601,-8.85816 21.20034,-19.17522 30.75,-29.78516 5.40947,-6.00652 10.64918,-12.26018 15.80859,-18.41992 6.32234,-7.40454 12.64459,-14.86531 19.88086,-21.40625 4.03352,-3.64759 8.56025,-6.86028 13.30078,-9.42383 2.75452,-1.50657 5.50903,-3.01317 8.26367,-4.51953 -4.11024,-2.24619 -8.32186,-4.31202 -12.34765,-6.70898 -8.39941,-5.12275 -15.13928,-12.43341 -21.63868,-19.71094 -5.51925,-6.20961 -10.74567,-12.67025 -16.10156,-19.01758 -8.85708,-10.26874 -18.28728,-20.04633 -28.18945,-29.31054 -5.21469,-4.82606 -10.56768,-9.55813 -16.57813,-13.38282 -5.25275,-3.41753 -10.678592,-6.68474 -16.597653,-8.81445 -2.526671,-0.86489 -5.17321,-1.06374 -7.828125,-1.08984 z m 170.656248,67.33593 c -0.56706,0.77279 -1.13411,1.54558 -1.70117,2.31836 -2.55282,3.46599 -5.00525,7.02733 -8.01562,10.12305 -4.6068,4.79617 -9.66141,9.2305 -15.34766,12.70703 -3.40094,1.89795 -6.86941,3.67354 -10.29688,5.52344 4.25062,2.43822 8.64887,4.63098 12.74805,7.32422 6.68644,4.47009 12.50758,10.16692 17.33008,16.59179 1.72649,2.20501 3.45499,4.40884 5.17969,6.61524 2.7731,-3.60142 5.36557,-7.34779 8.30664,-10.81641 5.41171,-6.2885 12.01724,-11.54377 19.375,-15.38086 2.50444,-1.38096 5.00787,-2.76247 7.51172,-4.14453 -3.45151,-1.85622 -6.99452,-3.54848 -10.37696,-5.52929 -5.89428,-3.6977 -11.12409,-8.37935 -15.86718,-13.44922 -2.7821,-2.95444 -5.2224,-6.21038 -7.37305,-9.64844 -0.49068,-0.7451 -0.98198,-1.48927 -1.47266,-2.23438 z"
       transform="scale(0.26458333)" />
    <path
       id="path14405"
       style="fill:url(#pattern3419);fill-opacity:1;stroke-width:2.03724;stroke-linecap:square"
       d="m 429.39844,157.39648 c -0.3651,0.002 -0.73072,-0.003 -1.09571,0.002 -7.67179,0.15333 -14.92311,3.27095 -21.42382,7.13672 -6.82859,4.0965 -13.17556,8.97134 -19.00586,14.39062 -9.68228,8.8968 -18.77455,18.42169 -27.52735,28.22852 -6.31563,7.07862 -12.2217,14.51254 -18.63281,21.50781 -6.0814,6.63422 -12.31247,13.2115 -19.46875,18.70703 -2.59131,2.02878 -5.47006,3.6337 -8.41211,5.08984 -2.25512,1.16898 -4.51051,2.33883 -6.76562,3.50782 4.281,2.31382 8.69424,4.39576 12.83789,6.95508 7.97042,5.01792 14.45806,11.96851 20.70117,18.93164 5.45824,6.10227 10.64819,12.48947 15.94726,18.79882 8.54478,9.85011 17.42423,19.42882 26.92188,28.3711 7.72683,7.21458 15.8324,14.17436 25.0625,19.41015 4.49004,2.47694 9.23067,4.66154 14.28711,5.66602 7.77706,1.44766 16.28181,3.5e-4 22.69336,-4.7793 3.84382,-2.82194 6.45394,-7.00931 8.04883,-11.44726 2.38537,-6.59136 3.49144,-13.5523 4.56445,-20.45313 1.04432,-7.07889 2.00322,-14.18003 2.36133,-21.33203 0.93736,-16.46132 1.04761,-32.95918 0.93554,-49.44336 -0.14815,-12.36055 -0.38193,-24.73178 -1.36132,-37.05859 -0.55722,-6.10914 -1.42934,-12.18519 -2.36719,-18.2461 -1.17358,-7.31786 -2.71164,-14.71794 -6.2207,-21.31836 -1.85726,-3.65586 -4.51171,-7.04957 -8.17188,-9.02929 -4.25783,-2.28008 -9.08424,-3.48822 -13.9082,-3.59571 z M 85.482422,157.8418 c -1.592949,-0.0157 -3.188389,0.0316 -4.763672,0.0332 -3.578306,0.0674 -7.265299,0.45778 -10.466797,2.18359 -4.069565,1.98075 -7.400758,5.31888 -9.529297,9.29883 -3.12023,5.78325 -4.549725,12.27792 -5.796875,18.67578 -1.312433,7.22389 -2.338476,14.50321 -3.035156,21.8125 -0.946783,11.10991 -0.816741,22.27201 -0.910156,33.41211 -0.0098,16.68196 -0.104744,33.37175 0.435547,50.04688 0.181455,5.51026 0.505315,11.02163 1.308593,16.48047 1.171442,8.62871 2.473801,17.29127 5.035157,25.63476 1.512053,4.68557 3.433297,9.48472 7.066406,12.94727 2.296603,2.12696 5.251196,3.35267 8.138672,4.45312 6.507201,2.40212 13.764978,2.05274 20.304687,-0.0371 8.665619,-2.74382 16.365029,-7.81832 23.490239,-13.35156 11.22601,-8.85816 21.20034,-19.17522 30.75,-29.78516 5.40947,-6.00652 10.64918,-12.26018 15.80859,-18.41992 6.32234,-7.40454 12.64459,-14.86531 19.88086,-21.40625 4.03352,-3.64759 8.56025,-6.86028 13.30078,-9.42383 2.75452,-1.50657 5.50903,-3.01317 8.26367,-4.51953 -4.11024,-2.24619 -8.32186,-4.31202 -12.34765,-6.70898 -8.39941,-5.12275 -15.13928,-12.43341 -21.63868,-19.71094 -5.51925,-6.20961 -10.74567,-12.67025 -16.10156,-19.01758 -8.85708,-10.26874 -18.28728,-20.04633 -28.18945,-29.31054 -5.21469,-4.82606 -10.56768,-9.55813 -16.57813,-13.38282 -5.25275,-3.41753 -10.678592,-6.68474 -16.597653,-8.81445 -2.526671,-0.86489 -5.17321,-1.06374 -7.828125,-1.08984 z m 170.656248,67.33593 c -0.56706,0.77279 -1.13411,1.54558 -1.70117,2.31836 -2.55282,3.46599 -5.00525,7.02733 -8.01562,10.12305 -4.6068,4.79617 -9.66141,9.2305 -15.34766,12.70703 -3.40094,1.89795 -6.86941,3.67354 -10.29688,5.52344 4.25062,2.43822 8.64887,4.63098 12.74805,7.32422 6.68644,4.47009 12.50758,10.16692 17.33008,16.59179 1.72649,2.20501 3.45499,4.40884 5.17969,6.61524 2.7731,-3.60142 5.36557,-7.34779 8.30664,-10.81641 5.41171,-6.2885 12.01724,-11.54377 19.375,-15.38086 2.50444,-1.38096 5.00787,-2.76247 7.51172,-4.14453 -3.45151,-1.85622 -6.99452,-3.54848 -10.37696,-5.52929 -5.89428,-3.6977 -11.12409,-8.37935 -15.86718,-13.44922 -2.7821,-2.95444 -5.2224,-6.21038 -7.37305,-9.64844 -0.49068,-0.7451 -0.98198,-1.48927 -1.47266,-2.23438 z"
       transform="scale(0.26458333)" />
    <path
       id="path6822"
       style="font-size:10.5833px;line-height:1.25;font-family:Cambria;-inkscape-font-specification:Cambria;letter-spacing:0px;word-spacing:0px;stroke-width:3.13267"
       d="m 55.07844,67.373078 c -5.602702,0.880598 -10.414947,7.274714 -14.101557,11.773569 -3.68661,4.498854 -12.681204,14.296806 -18.625908,14.296806 -5.944705,0 -6.976886,-3.543427 -7.872303,-10.644298 -0.895418,-7.10087 -0.816669,-11.843378 -0.816669,-15.065826 h -2.882374 v 1.590855 c 0,6.322498 0.834199,21.524833 1.678712,24.515562 0.844513,2.990729 4.749004,7.056634 11.028538,4.029898 6.279535,-3.026738 14.772726,-12.076064 19.210952,-17.846316 4.438226,-5.770252 8.809391,-9.528923 12.624043,-9.589462 3.814653,-0.06054 6.975596,1.448409 8.689098,5.175819 1.713502,3.72741 3.732578,9.341936 3.732578,9.341936 0,0 2.182136,-5.522318 0.305432,-9.115584 -1.876703,-3.593266 -7.367841,-9.343556 -12.970542,-8.462959 z"
       sodipodi:nodetypes="zzzzccszzzzzczz" />
    <use
       x="0"
       y="0"
       xlink:href="#path6822"
       id="use7047"
       transform="matrix(1,0,0,-1,1.3333333e-7,135.46667)"
       width="100%"
       height="100%" />
    <use
       x="0"
       y="0"
       xlink:href="#path6822"
       id="use9261"
       width="100%"
       height="100%"
       transform="matrix(-1,0,0,1,135.46666,3.3333321e-8)" />
    <use
       x="0"
       y="0"
       xlink:href="#use9261"
       id="use9263"
       width="100%"
       height="100%"
       transform="matrix(1,0,0,-1,-4.4666667e-6,135.46667)" />
    <path
       style="fill:url(#linearGradient8977);fill-opacity:1;stroke:none;stroke-width:0.294877px;stroke-linecap:butt;stroke-linejoin:miter;stroke-opacity:1"
       d="m 84.812018,67.733336 c 0,0 11.020513,-0.531404 16.679702,-3.454125 5.65918,-2.922722 12.50976,-6.642546 12.50976,-6.642546 l 0.59572,20.193337 c 0,0 -7.7187,-3.38736 -12.80763,-6.11114 C 95.832531,68.53044 84.812018,67.733336 84.812018,67.733336 Z"
       id="path8703"
       sodipodi:nodetypes="csccsc" />
    <path
       style="fill:url(#linearGradient9251);fill-opacity:1;stroke:none;stroke-width:0.294877px;stroke-linecap:butt;stroke-linejoin:miter;stroke-opacity:1"
       d="m 50.230935,67.733336 c 0,0 -11.02051,-0.531404 -16.679702,-3.454125 -5.65918,-2.922722 -12.50976,-6.642546 -12.50976,-6.642546 l -0.59572,20.193337 c 0,0 7.7187,-3.38736 12.80763,-6.11114 5.957042,-3.188422 16.977552,-3.985526 16.977552,-3.985526 z"
       id="path9249"
       sodipodi:nodetypes="csccsc" />
  </g>
  <g
     inkscape:groupmode="layer"
     id="layer2"
     inkscape:label="overlay"
     style="display:inline">
    <path
       style="display:inline;fill:#ffffff;fill-opacity:0.41;stroke:none;stroke-width:0.264583px;stroke-linecap:butt;stroke-linejoin:miter;stroke-opacity:1"
       d="m 17.157925,49.453536 c 0.206325,3.027231 1.381999,-1.49382 4.182611,-2.400297 2.800612,-0.906481 5.375504,2.871373 6.318686,0.684841 1.117778,-2.591299 -3.818909,-4.769951 -6.619521,-3.86347 -1.731749,0.560518 -4.088103,2.551707 -3.881778,5.578939 z"
       id="path8096"
       sodipodi:nodetypes="zsssz" />
    <path
       style="display:inline;fill:#ffffff;fill-opacity:0.411157;stroke:none;stroke-width:0.264583px;stroke-linecap:butt;stroke-linejoin:miter;stroke-opacity:1"
       d="m 104.04976,48.221645 c -3.36075,2.983754 -9.754504,10.195915 -8.434073,11.127982 1.320432,0.932068 12.065353,-10.66188 16.057583,-13.504269 3.50166,-2.493104 -0.33748,-2.613691 -1.80378,-1.766872 -1.4663,0.846819 -2.45899,1.159404 -5.81973,4.143159 z"
       id="path7235"
       sodipodi:nodetypes="zzssz" />
    <path
       style="fill:#000000;fill-opacity:0.25;stroke:none;stroke-width:0.264583px;stroke-linecap:butt;stroke-linejoin:miter;stroke-opacity:1"
       d="m 102.14995,83.979829 c 6.68211,4.785057 10.05357,6.058853 9.92679,7.589002 -0.12675,1.53015 -1.88045,1.21804 -7.80788,-3.662847 -5.927428,-4.880887 -8.801019,-8.711212 -2.11891,-3.926155 z"
       id="path6700"
       sodipodi:nodetypes="zzzz" />
    <path
       style="display:inline;fill:#000000;fill-opacity:0.25;stroke:none;stroke-width:0.264583px;stroke-linecap:butt;stroke-linejoin:miter;stroke-opacity:1"
       d="m 39.788535,77.123413 c -6.176729,5.421752 -18.319333,12.896119 -18.042022,14.406261 0.27731,1.510139 3.896913,1.752306 12.552615,-6.268092 8.655702,-8.020399 11.666135,-13.559922 5.489407,-8.138169 z"
       id="path4991"
       sodipodi:nodetypes="zszz" />
  </g>
</svg>
